{
	"asset":{
		"copyright":"you",
		"generator":"Khronos glTF Blender I/O v3.5.30",
		"version":"2.0"
	},
	"scene":0,
	"scenes":[
		{
			"name":"Scene",
			"nodes":[
				0
			]
		}
	],
	"nodes":[
		{
			"mesh":0,
			"name":"Plane"
		}
	],
	"meshes":[
		{
			"name":"Plane",
			"primitives":[
				{
					"attributes":{
						"POSITION":0,
						"TEXCOORD_0":1,
						"NORMAL":2
					},
					"indices":3
				}
			]
		}
	],
	"accessors":[
		{
			"bufferView":0,
			"componentType":5126,
			"count":782,
			"max":[
				10.004111289978027,
				20.257726669311523,
				1.8105534315109253
			],
			"min":[
				-10.006040573120117,
				0.20820045471191406,
				-0.05224144458770752
			],
			"type":"VEC3"
		},
		{
			"bufferView":1,
			"componentType":5126,
			"count":782,
			"type":"VEC2"
		},
		{
			"bufferView":2,
			"componentType":5126,
			"count":782,
			"type":"VEC3"
		},
		{
			"bufferView":3,
			"componentType":5123,
			"count":4440,
			"type":"SCALAR"
		}
	],
	"bufferViews":[
		{
			"buffer":0,
			"byteLength":9384,
			"byteOffset":0,
			"target":34962
		},
		{
			"buffer":0,
			"byteLength":6256,
			"byteOffset":9384,
			"target":34962
		},
		{
			"buffer":0,
			"byteLength":9384,
			"byteOffset":15640,
			"target":34962
		},
		{
			"buffer":0,
			"byteLength":8880,
			"byteOffset":25024,
			"target":34963
		}
	],
	"buffers":[
		{
			"byteLength":33904,
			"uri":"data:application/octet-stream;base64,"
		}
	]
}
